<svg version="1.1" id="Layer_1" xmlns="http://www.w3.org/2000/svg" xmlns:xlink="http://www.w3.org/1999/xlink" x="0px" y="0px"
	 width="100%" viewBox="0 0 1024 1024" enable-background="new 0 0 1024 1024" xml:space="preserve">
<path fill="#000000" opacity="1.000000" stroke="none" 
	d="
M752.743713,560.585938 
	C733.645630,610.244568 701.291870,648.374146 656.873413,676.692749 
	C628.112488,695.029114 597.721130,709.391541 564.181274,716.326904 
	C510.275208,727.473511 458.595459,720.490723 409.081299,696.644836 
	C372.748932,679.147156 340.911591,655.625610 314.368439,625.237793 
	C304.038818,613.411987 296.085999,599.839478 288.848877,585.916565 
	C287.321655,582.978516 285.399780,580.954407 282.391052,579.403198 
	C268.001068,571.984192 262.006439,553.085632 268.971588,536.922058 
	C270.330353,533.768860 270.438538,531.027100 269.650696,527.828857 
	C263.098114,501.228485 261.552795,474.323883 264.447876,447.071960 
	C265.398132,438.126984 266.511505,429.253235 268.465179,420.481689 
	C268.997192,418.093109 268.399506,415.885254 267.498291,413.681793 
	C260.821960,397.358459 265.052979,377.074524 280.797546,367.895386 
	C282.225311,367.062988 282.928711,365.822571 283.432251,364.402588 
	C288.808807,349.239471 296.346344,335.184723 305.202789,321.800262 
	C305.647827,321.127716 305.923248,320.342957 306.374023,319.411194 
	C300.940979,314.199860 296.778381,308.368042 295.491638,300.766357 
	C293.184906,287.139252 299.053467,273.493042 310.571167,266.296143 
	C321.505402,259.463898 337.025757,260.198944 347.802704,268.059509 
	C353.946014,272.540344 353.771210,272.309479 359.948944,267.632141 
	C391.209015,243.964279 425.875946,227.608368 464.366852,219.677979 
	C490.297974,214.335327 516.365356,213.435913 542.732239,216.394348 
	C570.966553,219.562347 597.754822,227.456802 623.777100,238.493561 
	C626.720520,239.741928 628.612549,241.112335 628.222412,244.645142 
	C627.821594,248.274338 629.323730,252.648499 623.982788,254.022186 
	C623.343750,254.186569 622.697083,254.436356 622.139648,254.783966 
	C619.386536,256.501007 615.058533,256.435608 615.281860,261.444580 
	C615.518311,266.747192 613.786499,272.324371 620.773254,275.333221 
	C626.825989,277.939819 632.373474,281.719696 638.195801,285.010071 
	C640.777466,282.555145 641.229919,279.665588 642.289673,277.128418 
	C643.208557,274.928314 641.750977,273.904419 639.994995,272.875671 
	C634.028809,269.380463 637.388428,263.574066 636.820923,258.796783 
	C636.382629,255.106781 640.278442,256.070374 642.124756,254.782288 
	C647.605347,250.958694 651.740601,253.282715 656.218079,256.976654 
	C661.860962,261.631989 668.080139,265.582031 673.933716,269.991547 
	C676.841125,272.181763 678.924744,272.401154 682.123169,269.830597 
	C698.296265,256.832428 719.712402,259.424438 731.011902,275.388245 
	C739.073792,286.778076 738.351929,304.127289 728.906067,315.407990 
	C726.593201,318.170074 726.508301,319.999542 728.479431,322.695618 
	C732.117310,327.671570 735.519348,332.818878 738.025085,338.488434 
	C738.656067,339.916260 739.712463,340.934906 740.878052,341.897949 
	C752.802063,351.749878 756.695618,364.494232 753.992615,379.389099 
	C753.515808,382.016418 753.712769,384.282135 754.510193,386.665497 
	C760.323486,404.041046 765.244690,421.661957 767.067810,439.940369 
	C768.937256,458.682343 768.934082,477.474304 767.530518,496.281738 
	C765.882874,518.359375 760.355713,539.503723 752.743713,560.585938 
M457.875214,554.677979 
	C442.997925,546.272461 427.498871,538.968323 411.813446,529.286804 
	C440.503357,513.143616 468.937347,498.842499 496.999268,482.400757 
	C484.424530,474.129974 471.121490,469.203003 459.457642,461.672119 
	C460.156982,459.385071 461.765686,459.018982 463.020569,458.327789 
	C488.550751,444.265259 514.122375,430.277710 539.616882,416.150970 
	C542.737915,414.421509 545.156128,415.141388 547.956177,416.699310 
	C567.603088,427.630981 587.308716,438.457123 606.985291,449.335571 
	C612.877563,452.593170 618.737183,455.909851 625.396057,459.638702 
	C577.672424,486.164246 530.782776,512.226196 482.855286,538.865051 
	C491.699921,543.540955 499.401764,547.412781 506.891663,551.658508 
	C510.518402,553.714417 513.463501,553.480957 517.050415,551.465210 
	C562.207336,526.088196 607.414185,500.799316 652.685425,475.626801 
	C657.144043,473.147675 659.356567,470.211884 658.749695,464.948029 
	C658.294800,461.001709 658.257935,456.907501 658.764465,452.973083 
	C659.547607,446.889435 656.821594,443.771637 651.667297,440.971222 
	C617.568665,422.445038 583.603821,403.671661 549.679199,384.827820 
	C545.939392,382.750549 543.012451,382.488739 539.116150,384.658234 
	C495.758911,408.799835 452.293793,432.747589 408.870087,456.769928 
	C405.630615,458.562012 402.485931,460.525330 398.689819,462.767853 
	C411.882263,469.844910 424.231018,476.469391 436.382385,482.987976 
	C435.845673,485.019379 434.741638,485.142487 433.886719,485.605286 
	C416.458801,495.039276 399.101807,504.607819 381.564575,513.833862 
	C376.831940,516.323608 374.624695,519.347595 375.255432,524.799438 
	C375.731049,528.910339 375.513763,533.128723 375.297699,537.283264 
	C375.136139,540.389771 376.382446,541.982178 379.116730,543.444824 
	C396.150269,552.556702 413.063721,561.893066 430.021942,571.145874 
	C456.483185,585.583801 482.968048,599.978760 509.388611,614.490784 
	C512.922058,616.431641 515.875610,616.637695 519.532898,614.504761 
	C532.191345,607.122437 545.045227,600.074951 557.826355,592.902832 
	C589.638733,575.051758 621.420105,557.144775 653.304993,539.424255 
	C657.310913,537.197876 659.072937,534.598877 658.751648,529.946411 
	C658.350830,524.141785 658.677307,518.288574 658.635193,512.456726 
	C658.621033,510.493408 658.857056,508.415009 657.063599,506.838593 
	C654.396057,506.534546 652.314148,508.124756 650.194702,509.308228 
	C631.873779,519.538391 613.620728,529.890076 595.306274,540.131958 
	C569.582825,554.517090 543.807190,568.808838 518.103943,583.229919 
	C515.155762,584.884033 512.719910,584.841980 509.757233,583.193237 
	C492.728699,573.716370 475.607727,564.405518 457.875214,554.677979 
M425.827087,289.408356 
	C405.384399,300.956421 384.938049,312.498016 364.500610,324.055359 
	C354.498444,329.711578 344.547821,335.459961 334.503479,341.039948 
	C330.245911,343.405212 327.722626,346.233093 328.202026,351.666321 
	C328.756348,357.949158 328.428589,364.320801 328.284760,370.649353 
	C328.217590,373.606384 329.045837,376.074799 330.503937,378.638031 
	C337.509521,390.953369 337.257690,403.466827 330.474579,415.718231 
	C328.924835,418.517365 328.297455,421.119934 328.301605,424.169922 
	C328.344055,455.495667 328.421692,486.821930 328.261322,518.146912 
	C328.227631,524.728210 329.142120,530.731262 331.832520,536.923035 
	C339.415283,554.374268 331.995911,572.511292 314.691833,580.785339 
	C313.250854,581.474365 311.475433,581.783447 310.624359,583.478027 
	C311.138214,585.028564 311.425232,586.677612 313.317230,587.883423 
	C320.828857,575.834229 331.588806,569.987915 345.899292,570.541443 
	C360.555328,571.108276 369.671783,579.535706 376.571533,591.891113 
	C384.207642,587.611572 391.980133,584.450073 398.430573,579.406738 
	C397.991241,577.041016 396.533661,576.430847 395.245880,575.732056 
	C383.979675,569.618164 372.902985,563.100159 361.336273,557.617004 
	C354.981201,554.604492 352.752075,550.783936 352.774750,543.841187 
	C352.969696,484.189819 352.866669,424.537292 352.718994,364.885437 
	C352.709045,360.858429 354.050751,358.501190 357.558624,356.559753 
	C381.017731,343.576599 404.352844,330.369598 427.784088,317.335785 
	C455.146088,302.115417 482.584442,287.032379 509.934418,271.790588 
	C513.311157,269.908752 515.993958,269.752563 519.580383,271.762634 
	C551.544373,289.677338 583.640625,307.355988 615.699951,325.100494 
	C635.224915,335.907349 654.667969,346.867462 674.337830,357.404022 
	C679.566467,360.204834 682.101685,363.536407 681.319763,369.521545 
	C680.717834,374.129089 680.412231,378.808105 680.407166,383.455811 
	C680.348999,436.609467 680.325623,489.763336 680.463135,542.916687 
	C680.474731,547.411987 679.413025,550.311707 675.138184,552.386658 
	C668.404724,555.654907 661.921265,559.453857 655.425720,563.191101 
	C651.189392,565.628601 646.820984,567.930054 643.044922,571.429016 
	C646.242249,574.052612 649.791016,575.132874 653.202332,576.309387 
	C658.041748,577.978333 661.538757,580.451721 662.869751,585.834106 
	C663.776428,589.500916 665.854248,592.866882 667.267700,596.423218 
	C668.491455,599.502197 670.115234,599.898865 672.998291,598.205139 
	C682.187134,592.807068 691.468384,587.562012 700.797913,582.409851 
	C704.554504,580.335266 706.005066,577.602234 705.993225,573.174438 
	C705.847900,519.021667 705.867004,464.868286 705.973267,410.715332 
	C705.981018,406.761505 704.814453,404.608704 701.166016,402.607239 
	C679.650818,390.804688 676.541626,363.143097 694.578186,346.530090 
	C695.833008,345.374237 697.811768,344.655609 697.783813,342.243225 
	C696.415161,341.384613 695.052002,340.446014 693.614563,339.640015 
	C667.904846,325.223846 642.242249,310.722321 616.454834,296.446289 
	C585.420166,279.265320 554.131409,262.536346 523.300354,245.000305 
	C516.804565,241.305618 512.190002,241.605026 506.051331,245.072647 
	C479.663422,259.978546 453.032990,274.455078 425.827087,289.408356 
M399.838013,365.382019 
	C392.877686,369.312103 385.968079,373.336395 378.931366,377.124542 
	C376.228394,378.579651 375.213104,380.450226 375.284424,383.498688 
	C375.463623,391.158478 375.325470,398.825317 375.375305,406.488922 
	C375.383362,407.726379 374.873993,409.223389 376.962494,410.285004 
	C379.752899,408.836548 382.882324,407.323975 385.907074,405.625000 
	C425.252380,383.524963 464.661621,361.536255 503.843872,339.150452 
	C510.823334,335.162903 516.779846,333.866821 523.302124,339.293121 
	C524.805176,340.543579 526.816162,341.173187 528.564392,342.140930 
	C570.227356,365.203064 611.882690,388.279053 653.562683,411.310303 
	C654.917236,412.058838 656.212280,413.497009 658.667908,412.327362 
	C658.667908,405.602997 658.073669,398.570587 658.830750,391.686768 
	C659.628723,384.431091 656.710938,380.673859 650.572021,377.328186 
	C606.706299,353.421478 562.973450,329.269348 519.319763,304.977173 
	C515.208008,302.689056 512.245544,303.006958 508.368591,305.172577 
	C472.463867,325.228516 436.462952,345.112274 399.838013,365.382019 
M561.027222,635.580017 
	C547.302124,643.101074 533.544861,650.564331 519.876343,658.186829 
	C516.748169,659.931274 514.239258,659.707520 511.086884,657.990845 
	C477.599701,639.754211 444.022980,621.682068 410.472534,603.561523 
	C408.999176,602.765808 407.463470,601.712219 405.789276,602.614929 
	C398.839813,606.361694 391.949829,610.218872 384.820160,614.155823 
	C387.702576,617.405334 390.882996,618.905518 393.928253,620.561951 
	C409.577911,629.074280 425.259613,637.527832 440.916290,646.027344 
	C464.622009,658.896423 488.312622,671.793396 512.021240,684.657104 
	C514.328918,685.909241 516.365845,687.063232 519.382751,685.451599 
	C562.424133,662.460083 604.552185,637.833313 647.251892,614.232727 
	C649.655273,612.904236 650.110718,611.288452 648.969116,608.898621 
	C647.462585,605.744629 646.092468,602.525696 644.638000,599.346558 
	C640.609497,590.541260 641.626404,591.115723 633.378540,595.614929 
	C609.407898,608.690857 585.580078,622.028870 561.027222,635.580017 
M415.212616,428.697266 
	C451.675049,408.270416 488.137482,387.843567 525.010864,367.186493 
	C516.211365,359.696198 513.097290,359.255219 504.563110,364.030243 
	C463.596100,386.952179 422.648987,409.909729 381.712952,432.886932 
	C374.765228,436.786652 373.439606,441.044312 376.527985,449.772369 
	C389.637299,443.565582 401.866852,435.858032 415.212616,428.697266 
M577.569946,460.140625 
	C566.976685,454.266479 556.366882,448.421967 545.804260,442.493164 
	C543.694336,441.308868 542.007019,442.082001 540.224182,443.082916 
	C533.996155,446.579315 527.722595,449.996521 521.538818,453.569305 
	C517.313721,456.010406 512.674377,457.801422 508.245972,461.505798 
	C519.665344,467.509155 530.524414,473.192963 541.355042,478.930603 
	C543.866821,480.261261 545.875305,478.932983 547.892578,477.866547 
	C556.849548,473.131531 565.781433,468.348480 574.689270,463.521698 
	C575.931213,462.848755 577.605408,462.505676 577.569946,460.140625 
M302.299927,479.399017 
	C305.038239,479.404480 307.489441,478.819427 307.455566,475.443695 
	C307.323914,462.322174 307.055939,449.202087 306.897797,436.080719 
	C306.865051,433.364349 305.727448,432.111206 302.963531,432.285675 
	C298.793823,432.548889 294.643860,432.211304 290.603760,431.186462 
	C287.634338,430.433258 286.711761,431.860107 286.378662,434.404907 
	C284.634552,447.728302 283.099518,461.051605 283.255798,474.540436 
	C283.307709,479.019287 285.141907,480.013550 289.056061,479.414581 
	C293.181335,478.783325 297.343414,479.003662 302.299927,479.399017 
M730.010925,383.554565 
	C730.991943,382.435242 732.133545,381.418793 732.927246,380.179535 
	C737.262024,373.411255 736.140869,364.078918 730.425171,358.623260 
	C723.923096,352.417023 716.263672,351.626190 709.064941,356.417877 
	C702.317383,360.909180 699.517456,369.305603 702.563782,376.557373 
	C706.943115,386.982483 719.591309,391.741608 730.010925,383.554565 
M487.579071,698.667786 
	C490.116211,698.853027 492.653351,699.038330 496.283417,699.303406 
	C472.279755,686.686401 449.249146,674.580872 426.096649,662.411255 
	C423.558990,666.168335 423.082947,670.247375 421.399109,673.806458 
	C419.740936,677.311340 420.859467,679.129578 424.241577,680.749207 
	C444.065979,690.242615 464.864563,696.227478 487.579071,698.667786 
M289.817169,385.300934 
	C283.888306,391.140808 282.644562,397.489441 286.106750,404.240753 
	C288.945892,409.777161 296.956665,413.634369 303.009888,412.379669 
	C309.541748,411.025787 314.522339,406.317230 315.673676,400.407654 
	C317.012817,393.533813 314.118866,387.132019 307.970306,383.366852 
	C302.347534,379.923553 296.588806,380.418732 289.817169,385.300934 
M335.002838,592.421692 
	C328.026459,597.904114 325.875854,604.079468 328.696014,610.531250 
	C331.485809,616.913574 339.530640,621.722717 345.614502,620.420105 
	C351.883209,619.078003 356.802856,615.749878 358.423645,609.264587 
	C360.019531,602.878967 357.894470,597.407532 352.644440,593.384644 
	C347.319458,589.304382 341.652100,588.030579 335.002838,592.421692 
M727.262512,513.919373 
	C727.262512,530.435730 727.262512,546.952026 727.262512,563.468384 
	C728.657715,563.279358 728.997375,562.908752 729.217896,562.477173 
	C737.166870,546.917786 741.010498,530.075073 744.559021,513.148560 
	C744.977112,511.154022 744.454468,509.408234 741.883789,509.384247 
	C738.058228,509.348541 734.231812,509.331116 730.406494,509.371674 
	C728.038757,509.396759 727.309814,510.935364 727.262512,513.919373 
M675.414795,636.912903 
	C680.656555,632.032593 686.036438,627.290588 691.100647,622.232544 
	C696.009949,617.329163 700.861389,612.304871 703.950684,605.820007 
	C687.918335,614.308472 672.397644,623.330444 656.892151,632.378479 
	C655.621521,633.120056 654.929993,634.290283 655.625305,635.758118 
	C657.383423,639.470032 658.705933,643.449036 661.813904,646.605225 
	C666.956116,644.458435 670.608276,640.466248 675.414795,636.912903 
M296.008453,538.353577 
	C292.499756,539.820496 289.846222,542.205688 288.311676,545.712952 
	C285.869537,551.294556 287.614197,557.298401 292.725861,561.107788 
	C297.857361,564.931885 304.339630,564.835571 309.226044,560.862488 
	C313.914276,557.050537 315.295258,550.486328 312.535004,545.134216 
	C309.432098,539.117737 303.583984,536.518616 296.008453,538.353577 
M319.386963,284.817169 
	C315.089081,288.771576 313.111877,293.278015 315.729340,299.055481 
	C317.884338,303.812164 323.302032,307.793396 327.792023,307.290558 
	C333.403290,306.662109 337.996399,304.359589 340.026550,298.546112 
	C341.619781,293.983887 340.233063,288.879456 336.364777,285.446686 
	C331.153656,280.822388 326.995789,280.555267 319.386963,284.817169 
M716.520569,292.977722 
	C716.014221,290.849518 715.205261,288.868317 713.835876,287.127838 
	C709.198730,281.234039 701.125122,280.406189 695.195007,285.234802 
	C690.096741,289.386078 689.538391,297.289429 693.961548,302.696075 
	C697.154114,306.598450 702.484192,308.118805 707.451355,306.543945 
	C713.351624,304.673187 716.062317,300.880402 716.520569,292.977722 
M747.853333,481.340881 
	C747.873169,478.846191 747.775330,476.343597 747.941284,473.858673 
	C748.173462,470.383972 746.643616,469.062683 743.235901,469.214569 
	C739.251587,469.392151 735.254456,469.287537 731.262878,469.298340 
	C729.276978,469.303711 727.384399,469.680908 727.395447,472.125549 
	C727.417786,477.068359 725.593323,482.745728 728.310120,486.724670 
	C730.448608,489.856659 735.792175,487.638794 739.691772,488.018066 
	C740.515503,488.098145 741.364197,487.942780 742.183594,488.042480 
	C746.601135,488.579895 748.328979,486.526215 747.853333,481.340881 
M306.952698,512.152832 
	C306.967438,510.494049 306.988647,508.835327 306.995789,507.176514 
	C307.025879,500.203613 306.376404,499.444092 299.378876,499.440186 
	C282.360687,499.430603 284.392548,497.619141 287.446136,514.956543 
	C287.911926,517.601257 289.077148,518.958191 292.283813,518.105713 
	C295.441376,517.266296 298.818298,516.643677 302.125702,517.284058 
	C305.769440,517.989624 307.033722,516.381897 306.952698,512.152832 
M734.614807,447.706909 
	C735.612122,447.710083 736.609436,447.712524 737.606750,447.716492 
	C747.237793,447.754761 747.243958,447.753815 745.567383,438.168915 
	C745.367371,437.025635 744.867188,435.907532 744.831909,434.767670 
	C744.703613,430.622711 742.642395,429.684967 738.675476,429.879608 
	C727.288025,430.438354 727.550903,430.261658 727.199707,441.408783 
	C727.037659,446.552155 728.694031,448.502869 734.614807,447.706909 
M559.220947,696.627808 
	C561.180786,696.274719 563.148010,695.957886 565.099304,695.562439 
	C575.616272,693.431335 575.862732,693.033203 573.336914,682.505066 
	C573.303650,682.366455 573.129211,682.261719 572.458008,681.516113 
	C562.571533,686.850830 552.506897,692.281616 541.177673,698.394775 
	C548.063110,698.923462 553.158630,697.298523 559.220947,696.627808 
M634.382019,646.807556 
	C631.148987,647.407288 628.862305,649.793701 626.066956,651.221252 
	C624.471741,652.035950 624.101929,653.417725 624.637756,655.029602 
	C626.083801,659.379395 627.576599,663.713745 629.057556,668.073792 
	C643.314758,662.155701 644.166626,659.182190 635.402954,647.293762 
	C635.308960,647.166260 635.137634,647.095703 634.382019,646.807556 
M377.853668,282.215393 
	C376.014954,279.654877 374.510925,281.941223 373.352478,282.818207 
	C370.057373,285.312683 367.099976,288.249725 363.839844,290.795013 
	C359.788757,293.957733 359.653534,297.808228 361.184509,302.636108 
	C365.816681,300.001221 370.123749,297.575470 374.407440,295.109222 
	C381.845276,290.827026 381.839233,290.816528 377.853668,282.215393 
M568.473267,242.269531 
	C565.851868,241.745728 563.230530,241.221909 560.609131,240.698090 
	C565.941162,244.412231 571.377075,247.571579 576.906189,250.558380 
	C582.518372,253.590027 588.222473,256.451385 594.084351,259.489929 
	C595.503662,250.043884 595.351257,249.653473 587.075806,247.181015 
	C581.193848,245.423660 575.221802,243.968002 568.473267,242.269531 
M403.392029,661.011292 
	C407.013947,651.683655 406.962250,651.780090 400.739502,648.446228 
	C398.226990,647.100098 396.530212,647.633911 395.594116,650.046631 
	C393.982605,654.200134 388.482910,656.867554 390.779358,662.508362 
	C390.831055,662.635376 391.037445,662.706360 391.180481,662.788025 
	C394.255402,664.544006 397.331604,666.297729 400.745422,668.244568 
	C401.655853,665.692322 402.368866,663.693542 403.392029,661.011292 
M599.527771,666.119751 
	C593.103760,669.961853 592.160583,676.203979 596.784363,684.198120 
	C597.122559,684.198120 597.479370,684.283386 597.776184,684.185852 
	C609.253174,680.416992 609.697144,679.312317 605.838867,668.065125 
	C604.662170,664.635315 603.198853,663.711914 599.527771,666.119751 
M401.513214,278.349701 
	C404.667969,277.601562 407.081970,275.442627 409.828918,273.928497 
	C415.533630,270.783905 416.565887,265.766846 412.753052,260.009796 
	C407.909668,261.352844 403.816193,264.202454 399.608215,266.834229 
	C397.842133,267.938782 396.982910,269.251801 397.971619,271.389252 
	C399.002258,273.617249 398.987762,276.296112 401.513214,278.349701 
M363.320740,643.157471 
	C365.771851,644.761353 367.698273,647.198242 370.855103,648.102356 
	C373.633759,644.287537 376.473175,640.711548 377.969055,636.353394 
	C367.687317,629.597229 367.687317,629.597229 357.692993,637.423340 
	C358.753357,639.788513 361.164978,640.874817 363.320740,643.157471 
M444.829865,246.348999 
	C435.499054,249.739807 434.654266,251.092484 437.302063,258.988556 
	C447.276825,253.013412 457.967560,248.461136 467.464172,241.698044 
	C459.913055,242.253372 452.684174,243.873016 444.829865,246.348999 
M375.371094,488.791901 
	C375.469208,491.197144 376.664368,492.316406 378.883392,491.109192 
	C383.002289,488.868378 387.503601,487.236084 391.832001,483.585907 
	C386.272766,480.712067 381.286743,478.134521 375.352509,475.066833 
	C375.352509,480.130249 375.352509,484.039398 375.371094,488.791901 
M670.652344,299.608215 
	C670.720642,292.806061 669.422180,290.978943 662.161926,287.920166 
	C660.651672,290.413940 659.634766,293.089691 659.020630,296.246826 
	C662.010681,297.972900 664.838867,299.667572 667.731079,301.244690 
	C668.898193,301.881073 670.309021,302.566132 670.652344,299.608215 
M732.573547,405.381622 
	C731.180725,406.324768 728.914917,405.881683 728.007019,408.613586 
	C731.263000,408.921600 734.209656,409.263977 737.280212,408.173553 
	C737.189636,404.995361 736.421448,403.316620 732.573547,405.381622 
z"/>
<path fill="#000000" opacity="1.000000" stroke="none" 
	d="
M406.147430,821.687622 
	C413.110992,821.459717 419.601166,821.270813 426.089355,821.029785 
	C429.797180,820.892090 431.506958,822.317688 431.351654,826.318298 
	C431.099762,832.805847 431.261902,839.311157 431.323700,845.808289 
	C431.345428,848.091614 431.025391,850.014038 428.802185,851.334717 
	C417.534027,858.028503 405.840240,861.739685 392.655029,857.548828 
	C379.380402,853.329590 370.330963,841.821350 369.734314,827.970520 
	C369.129761,813.935425 377.105621,800.747498 389.728119,795.644104 
	C402.459686,790.496643 414.767059,791.684021 426.518799,798.908508 
	C430.036072,801.070862 429.810394,802.757263 427.276337,805.896973 
	C422.860443,811.368164 419.667999,814.905273 411.515747,810.113281 
	C402.899261,805.048279 391.529388,810.784607 387.972961,819.721069 
	C384.505127,828.434937 388.808502,838.369263 397.872162,842.443542 
	C402.203308,844.390442 406.604675,843.997498 411.036957,842.691895 
	C413.656281,841.920410 414.999023,840.419006 414.629578,837.588623 
	C414.239502,834.600220 411.908051,835.202393 410.018707,835.084717 
	C403.664337,834.688721 400.362854,828.908142 403.147675,822.967407 
	C403.642365,821.912170 404.670258,821.805054 406.147430,821.687622 
z"/>
<path fill="#000000" opacity="1.000000" stroke="none" 
	d="
M677.530212,856.508972 
	C673.240234,857.142090 669.275757,857.477173 665.304993,857.695740 
	C662.831238,857.831970 661.699158,856.551575 661.700562,854.055786 
	C661.710999,835.578613 661.237549,817.085876 661.881836,798.631714 
	C662.150085,790.951416 669.195374,795.939697 672.994568,794.811462 
	C675.979675,793.924988 678.552917,794.909546 678.369751,799.076111 
	C678.165161,803.727722 678.434387,808.398438 678.315002,813.056152 
	C678.234131,816.211609 679.515564,817.676758 682.705261,817.633362 
	C687.365234,817.569946 692.029114,817.548035 696.687073,817.670654 
	C699.790649,817.752319 700.751099,816.238403 700.704895,813.381470 
	C700.629517,808.722412 700.814026,804.059265 700.746216,799.399902 
	C700.698486,796.118347 701.881592,794.571228 705.427063,794.631836 
	C719.619080,794.874329 717.191345,793.163879 717.308228,806.016907 
	C717.447571,821.330383 717.222900,836.647400 717.395081,851.960205 
	C717.440369,855.993286 716.286011,857.575928 712.045837,857.437378 
	C699.431030,857.025269 700.773682,859.199951 700.705139,846.396851 
	C700.633545,833.020508 700.688049,833.018982 687.155945,833.106995 
	C685.657959,833.116699 684.158508,833.203308 682.662598,833.158875 
	C679.472412,833.064270 678.323303,834.587952 678.282715,837.737671 
	C678.203613,843.878357 678.873352,850.043274 677.530212,856.508972 
z"/>
<path fill="#000000" opacity="1.000000" stroke="none" 
	d="
M538.617432,855.331543 
	C537.237915,843.257751 538.121948,831.594788 537.963318,819.948608 
	C537.870300,813.120605 538.072083,806.287292 537.901489,799.462341 
	C537.817932,796.117554 538.840637,794.605469 542.413147,794.640198 
	C555.237671,794.765076 568.064453,794.729919 580.889771,794.659302 
	C583.880798,794.642883 585.010315,795.853699 585.001282,798.836609 
	C584.961975,811.811951 585.169678,809.170532 575.158264,809.369324 
	C570.163208,809.468567 565.152588,809.597168 560.171143,809.318176 
	C556.070984,809.088440 555.089722,810.859924 555.099426,814.624634 
	C555.109619,818.562927 556.537476,819.957947 560.428284,819.702515 
	C565.407349,819.375549 570.422119,819.611084 575.405579,819.325928 
	C578.665405,819.139343 580.288757,819.895996 580.385742,823.601501 
	C580.641846,833.387878 580.785156,833.384399 570.830627,833.381653 
	C566.999573,833.380615 563.161560,833.519775 559.339417,833.334045 
	C555.854675,833.164612 555.146484,834.984680 555.153931,837.955627 
	C555.161133,840.832031 555.609924,842.782349 559.196167,842.700562 
	C566.354980,842.537170 573.522034,842.738647 580.681274,842.585205 
	C584.134155,842.511169 585.349487,843.838196 585.291199,847.296204 
	C585.092163,859.099426 586.025269,857.261902 575.554810,857.333069 
	C565.061401,857.404358 554.566895,857.408813 544.073730,857.328857 
	C542.227478,857.314819 539.963684,858.152466 538.617432,855.331543 
z"/>
<path fill="#000000" opacity="1.000000" stroke="none" 
	d="
M354.886261,814.842163 
	C348.268707,823.794373 341.866364,832.461487 335.075897,841.653992 
	C341.253235,843.286377 346.869568,842.532166 352.399078,842.570374 
	C362.889709,842.642822 361.106354,842.229126 361.370789,851.339233 
	C361.422699,853.128235 361.378265,854.920044 361.378265,856.837463 
	C356.736847,857.813721 352.588928,857.296997 348.486267,857.335571 
	C338.667450,857.428040 328.845154,857.476257 319.028839,857.295837 
	C316.411743,857.247803 312.606079,858.942627 311.404449,855.646973 
	C310.073700,851.997314 309.878510,847.792603 312.604675,844.218079 
	C318.859558,836.016724 325.101074,827.805054 331.325500,819.580505 
	C333.607941,816.564697 335.827026,813.500977 338.239441,810.236694 
	C330.850861,808.806274 323.853516,809.464539 316.899384,809.479004 
	C313.203552,809.486755 311.547974,808.558472 311.544525,804.453735 
	C311.536377,794.678223 311.340363,794.671021 321.182251,794.662903 
	C332.666260,794.653503 344.153198,794.806641 355.632782,794.580688 
	C359.881989,794.497070 361.061554,795.792542 361.528595,800.171570 
	C362.216034,806.616760 358.462311,810.328430 354.886261,814.842163 
z"/>
<path fill="#000000" opacity="1.000000" stroke="none" 
	d="
M594.015625,827.952820 
	C594.862366,822.965576 594.609680,818.299805 596.292114,813.798279 
	C604.306152,792.356079 633.146118,785.243896 650.240295,800.581543 
	C652.188782,802.329834 653.092346,803.757141 650.611572,805.769714 
	C649.331726,806.807983 648.175354,808.074219 647.216187,809.417908 
	C644.130371,813.740845 641.285828,814.680054 636.185242,811.353638 
	C629.970703,807.300903 622.914429,808.387695 617.102112,813.118835 
	C611.713501,817.505249 610.054871,823.591248 611.773987,830.243225 
	C613.653076,837.513977 619.088989,841.359924 626.138489,842.412537 
	C631.128479,843.157593 635.631470,840.744446 639.322632,837.482727 
	C641.586670,835.482117 643.205566,835.399902 645.182373,837.560120 
	C646.076111,838.536926 647.153076,839.351257 648.177612,840.202332 
	C654.400940,845.371826 654.541748,846.216370 648.039124,851.246338 
	C637.850952,859.127258 626.524170,861.627075 614.270508,856.767273 
	C601.518066,851.709717 595.197693,841.822815 594.015625,827.952820 
z"/>
<path fill="#000000" opacity="1.000000" stroke="none" 
	d="
M481.131348,794.671509 
	C495.768738,794.670654 509.925415,794.793030 524.077759,794.599792 
	C528.265808,794.542603 529.536438,796.025330 529.423218,800.111511 
	C529.125366,810.864197 530.089966,809.324646 520.436523,809.348938 
	C508.090820,809.380005 510.446564,810.280090 510.364777,819.399353 
	C510.267670,830.222961 510.213562,841.050476 510.415070,851.871216 
	C510.488922,855.837646 509.433899,857.576416 505.125885,857.441833 
	C492.870148,857.059082 493.805756,859.176208 493.742126,846.304749 
	C493.683014,834.348022 493.729492,822.390747 493.729492,810.326050 
	C489.045105,809.144043 484.722412,809.261963 480.460114,809.474854 
	C476.836243,809.655762 475.182068,808.253906 475.124329,804.713867 
	C475.102631,803.383484 475.053314,802.046570 474.897949,800.726562 
	C474.385651,796.374084 475.834137,793.938965 481.131348,794.671509 
z"/>
<path fill="#000000" opacity="1.000000" stroke="none" 
	d="
M459.926941,835.379517 
	C454.777710,835.370361 450.113464,835.250244 445.457001,835.390259 
	C442.352936,835.483521 441.038605,834.375305 440.804169,831.135498 
	C440.044678,820.639160 439.935120,820.647339 450.439484,820.659729 
	C454.933960,820.664978 459.430359,820.749939 463.922272,820.645081 
	C466.835785,820.577026 468.328857,821.677795 468.121826,824.716675 
	C468.054077,825.711182 468.099365,826.713562 468.096222,827.712341 
	C468.072205,835.328857 468.072479,835.328857 459.926941,835.379517 
z"/>
</svg>